# xmcd
#
# Track frame offsets:
#	150
#	21807
#	41534
#	54053
#	67736
#	97316
#	115372
#	137348
#	156953
#	176244
#
# Disc length: 2595 seconds
#
# Revision: 0
# Processed by: cddbd v1.5.2PL0 Copyright (c) Steve Scherf et al.
# Submitted via: audiograbber 1.83.01
#
DISCID=7f0a210a
DTITLE=Rickie Lee Jones - Balm In Gilead 
DYEAR=2009
DGENRE=Country
TTITLE0=Wild Girl
TTITLE1=Old Enough
TTITLE2=Remember Me
TTITLE3=The Moon Is Made Of Gold
TTITLE4=His Jeweled Floor
TTITLE5=Eucalyptus Trail
TTITLE6=The Blue Ghazel
TTITLE7=The Gospel Of Carlos, Norman and Smith
TTITLE8=Bonfires
TTITLE9=Bayless St.
EXTD=
EXTT0=
EXTT1=
EXTT2=
EXTT3=
EXTT4=
EXTT5=
EXTT6=
EXTT7=
EXTT8=
EXTT9=
PLAYORDER=
